<?xml version="1.0" encoding="utf-8"?>
<!-- Generator: Adobe Illustrator 27.6.1, SVG Export Plug-In . SVG Version: 6.00 Build 0)  -->
<svg version="1.1" xmlns="http://www.w3.org/2000/svg" xmlns:xlink="http://www.w3.org/1999/xlink" x="0px" y="0px"
	 viewBox="0 0 1000 1000" style="enable-background:new 0 0 1000 1000;" xml:space="preserve">
<style type="text/css">
	.st0{display:none;}
	.st1{display:inline;fill:#043673;}
	.st2{fill:#002D72;}
	.st3{fill:#FFFFFF;}
</style>
<g id="Layer_2" class="st0">
</g>
<g id="Layer_1">
	<g>
		<path class="st2" d="M363.4,440.5V297.4c-47,37.8-84.5,86.9-108.4,143.1H363.4L363.4,440.5z"/>
		<path class="st2" d="M484.6,261.9v180c49.6-0.1,89.7-40.4,89.7-90C574.3,302.3,534.2,262.1,484.6,261.9"/>
		<path class="st2" d="M823.9,584.4H683.7h-40.5h-2.9V218.7h43.4v323.9h140.2V584.4L823.9,584.4z M484.6,485.3v99.1h-43.4V218.6
			h43.4c73.5,0.2,133.1,59.8,133.1,133.4S558.1,485.1,484.6,485.3 M406.8,584.4h-43.4v-99H239.3c-8.8,31.5-13.5,64.7-13.5,99.1H183
			c0-159.6,90.9-297.8,223.8-366L406.8,584.4L406.8,584.4z M926.3,66.5l-0.3-0.1C788.6,37,646.1,21.5,500,21.5
			c-146.3,0-289,15.6-426.6,45l-0.6,0.2C63.2,69.1,56,77.8,56,88.3l0,77c0,510.7,302.7,740.7,432.8,809.7c8.4,4.5,15.2,4,22.2,0.1
			C641.1,906.2,944,676.3,944,165.4l0-77C944,77.5,936.4,68.6,926.3,66.5"/>
	</g>
</g>
</svg>
