<?xml version="1.0" encoding="utf-8"?>
<!-- Generator: Adobe Illustrator 19.2.1, SVG Export Plug-In . SVG Version: 6.00 Build 0)  -->
<svg version="1.1" id="layer" xmlns="http://www.w3.org/2000/svg" xmlns:xlink="http://www.w3.org/1999/xlink" x="0px" y="0px"
	 viewBox="0 0 652 652" style="enable-background:new 0 0 652 652;" xml:space="preserve">
<style type="text/css">
	.st0{fill:#FFFFFF;}
	.st1{fill:#004FA2;}
	.st2{fill:#E21836;}
</style>
<path class="st0" d="M523.2,71.8H539c17.2,0,31.2,14.1,31.2,31.3v155.6l-0.3-0.5l-1.7-3.2l-4.1-5.3l-0.3-12.5l-8.6-6.2l-19.9-8.3
	l-30.7-11.3l-9.5-3.4l-6.6,4.6c-5.8,3.6-7.2,9.8-9.6,15.1l-3.6,9.9l-1.6,4.4c-3.2-1-7.4-2.2-11.5-3.5l-3.2-0.9l-2.1-0.7
	c4.1-4.2,4.7-8.2,6.5-13.2l23.2-61.3l-1.5-1.6l-97.3-36.2l-2.3-10.2c0,0-1.3-5.9-4.3-10.6c-1.6-2.6-3.9-4.5-8.5-6.1l-10.5,0.4
	c-6.8,2.4-10.7,5.4-16.7,10l-7.9-3.2l-52.2-19.8l-34.2-13.1H523.2z M472.7,244.4l-1.3,3.3l-11-7L472.7,244.4z M406.6,321.6
	c-4.3-1.6,18.3,6.4,28.1,10.7l-1.8,7.9l-63.1-25.8l4.4-5.2L406.6,321.6z M397.3,194.3l5.7,1.9c-2.8,4.8-4.9,5.6-4.9,5.6L397.3,194.3
	z M402.3,216.5c-1.8-4.7-2.4-6.3-3.6-11.1l7.7-8.2l10.9,4.1l3.7-11.6c-3.8-1.9-18-7.4-22.8-8.6l-1.4,3.6c-1.6-8.9-1.1-16.7-3.7-27.2
	l-1.3-0.6c-0.6-5.2-2.9-15.2-3.7-19.8l89.6,34.5l-0.2,1.1l-19.3,50.9c-1.6,5.1-2.4,6.7-2.4,9.2l-0.3,3.2L402.3,216.5z M276.2,133.5
	l-4.7,12l11.1,4.5l-1.2,6.6l-7.8,5.5l-6.1,3.7l-26-8.9l-19.8-9.5l4.8-6.6l12.6-33.2l9-23.8l15.4,5.9l71.9,26.7
	c-3.7,4.2-11.3,10.1-15.2,13.5l-1-0.5l-7.5,5.7l-7.4,6.6l-4.5,3.8l0.6-3C296.5,140.7,282.6,135.7,276.2,133.5z M289.4,152.4l-1.9,1
	l-2.7,1.3l0.4-3.9l2.7,1L289.4,152.4z M234.3,255.9l-0.9,6.5l-63.7-23l1.3-1.8l2.5-4.9L234.3,255.9z M205.5,145.7l1.3-3.2l10,5.1
	L205.5,145.7z M248,71.8l-12.2,32.2l-14.2,37.3l-1,5.5c-4.3-2.1-8.5-4.5-12.7-7c3.7-10,7.6-19.9,10.2-30.5l-2.6-10.7
	c-21-11.7-39.5-20.8-63.5-25.9l-3.8-0.8H248z M70.2,103c0-17.2,14-31.3,31.3-31.3H147c-4.3,2.5-8.7,6.8-11.8,10.5
	c-6.4-1.9-10.9,3.4-14.7,7.6l-1.7,1.8l-12.1,30l-19.3,45.8l-12.9,29.4l0.1,1.1l-4.4,11.1V103z M570.2,540.6
	c0,17.2-14,31.2-31.2,31.2H101.6c-17.2,0-31.2-14.5-31.3-24.8v-20.8l0-1.3V212.3c1.3,6.5,4.7,15.1,11.2,16.7l22.5,8.8l20.5,7.9
	l7.7-3c6.3,3,13.1,5.5,19.6,8.3l9.7-1c6.5,2.4,14.1,5,20.7,7.5l50.6,16.7c-0.3,4.5,1.1,7,1.1,7s0,2.9,5.5,6.4l15.7,6l38.8,14.8
	l10.2,3.8l13.7,5.5c5,1.7,11.8,4.4,20,7.4c9.9,3.1,16.5,3.7,23.8-1.7l50.5,21.1c5.9,2.7,19.5,8,20.7,8.8c0.7,4.7,2.4,7.5,6.3,9.8
	l19.3,7.4l2.4,6.8l4.3,3l33.2,12.8l9.5,3.7l4.4-0.2c2.9-2.2,7.9-4.3,11-8.9c4.1-7,6.3-14.7,9.5-22.1l15-38.1l9.5-26l12.7-35.3
	l0.2-1.1v204.7h0V540.6z"/>
<path class="st1" d="M502.3,452.1c0-5.5-3.1-6.6-7.5-6.6h-2.1v14.2h1.9C499,459.7,502.3,457.7,502.3,452.1"/>
<polyline class="st1" points="433.2,444.8 433,444.8 428,473.2 437.8,473.2 433.2,444.8 "/>
<path class="st1" d="M239.3,447.3H237v39.6h2.3l7.4-4.7c1.6-2.9,2-8,2-15.1c0-7-0.4-12.2-2-15.2L239.3,447.3"/>
<path class="st1" d="M338.1,528.1c0-5.6-10.8-7-22.9-7h-38.6v14.8h37.2C319.3,535.9,338.1,535.9,338.1,528.1"/>
<polyline class="st1" points="534.5,424.4 533,424.4 533,426.7 534.4,426.7 536.2,425.5 534.5,424.4 "/>
<path class="st1" d="M534.4,421.7l-5.4,5.5l5.4,5.6l5.3-5.6L534.4,421.7 M536.3,430.9l-1.9-3.2H533v3.2h-1.2v-7.5h2.9l2.8,2.1
	l-2.1,2.1l2.2,3.2H536.3z"/>
<path class="st1" d="M570.1,365.8V265.1l-0.2,1.1l-12.7,35.3l-9.5,26l-15,38.1c-3.2,7.4-5.4,15.1-9.5,22.1c-3.1,4.6-8,6.6-11,8.9
	l-4.4,0.2H101.5c-17.3,0-31.3-14-31.3-31.2v159.4l0,1.3v20.8c0.1,10.3,14.1,24.8,31.3,24.8H539c17.2,0,31.2-14,31.2-31.2v-70.8h0
	V365.8 M467.3,501.2h-23.8l-2.3-12.1h-16.7l-2.4,12.1h-22.1l18.6-75.2h30L467.3,501.2z M267.1,428.5H291l8,30.5h0.2l8-30.5h22
	L309.8,476v25.2h-23.1V476L267.1,428.5z M469.9,426h34.6c12.4,0,19.8,5,19.8,19.1c0,8.6-2.8,15.1-11.6,17.9v0.1
	c5.6,0.7,8.8,3.8,9.9,9.6c1.2,6.4,1.1,17,3.7,28.4h-22.6c-1.4-5.7-2.1-15.2-2.9-21.6l-5.7-5.1h-2.7v26.7h-22.6V426z M108.2,410.5
	H137v90.7h-28.9V410.5z M142.7,554.2c-28,0-38.8-4.8-38.8-12.1h5.5c0.1,6.3,9.9,10.1,32.8,10.1c21,0,28.6-3.6,28.6-7.5
	c0-3.9-4.5-5.6-22.5-7.1l-15.8-1.4c-18.7-1.6-25.9-3.7-25.9-8.9c0-5.1,11.2-8.9,32.4-8.9c21.5,0,35.2,3.2,35.8,10.5h-5.5
	c-0.7-3.9-6.3-8.5-28.8-8.5c-20.8,0-27.6,3.1-27.6,6.9c0,3.7,3.9,5.5,20.2,6.8l17.6,1.4c17.1,1.3,26.4,3.6,26.4,9
	C177,549.2,169.4,554.2,142.7,554.2z M166.1,456.9h-0.2v44.3h-18.7v-72.7h27.7l12.4,43.9h0.1v-43.9h18.8v72.7h-27.7L166.1,456.9z
	 M258.8,553.4h-68.2v-34.2H258v1.9h-62v13.6h59.5v1.9H196v14.9h62.8V553.4z M243,501.2h-28.7v-72.7h27.4c23.3,0,30.6,15.6,30.6,37.2
	C272.3,487.6,261,501.2,243,501.2z M339.1,553.4c-1.6-0.6-2.1-2.7-2.4-7.9c-0.3-6-5.1-7.7-22-7.7h-38v15.6h-5.6v-34.2h43.7
	c16.3,0,28.8,1.8,28.8,9.1c0,3.5-5.3,7.4-17.4,8.5c10.4,0.5,15.8,3.5,16,7.2c0.3,6.2,0.7,8.3,2.3,9.5H339.1z M363.9,553.4h-5.5
	v-34.2h5.5V553.4z M330.1,455.4c-0.6-28.3,12.4-47.4,36.3-47.4c17.9,0,32.8,9.3,32.9,36h-25.6c-0.5-10.3-3.4-12.3-6.8-12.3
	c-7.2,0-7.9,9.5-7.9,24.2c0,13.8,0.6,24.1,7.6,24.1c3.7,0,6.1-2.8,6.5-12.3h26.2c0,24.9-15.5,35.8-33,35.8
	C341.6,503.5,330.1,484.2,330.1,455.4z M449.5,553.4h-68.2v-34.2h67.5v1.9h-62v13.6h59.5v1.9h-59.5v14.9h62.7V553.4z M496.8,554.2
	c-28,0-38.8-4.8-38.8-12.1h5.4c0.2,6.3,9.9,10.1,32.9,10.1c20.9,0,28.5-3.6,28.5-7.5c0-3.9-4.5-5.6-22.5-7.1l-15.9-1.4
	c-18.7-1.6-25.8-3.7-25.8-8.9c0-5.1,11.1-8.9,32.2-8.9c21.5,0,35.2,3.2,35.8,10.5h-5.5c-0.7-3.9-6.3-8.5-28.7-8.5
	c-20.8,0-27.6,3.1-27.6,6.9c0,3.7,4,5.5,20.2,6.8l17.6,1.4c17,1.3,26.4,3.6,26.4,9C531.1,549.2,523.4,554.2,496.8,554.2z
	 M534.4,433.8l-6.8-6.7l6.8-6.5l6.7,6.5L534.4,433.8z"/>
<path class="st1" d="M215.6,98.5l2.6,10.7c-2.6,10.6-6.5,20.5-10.2,30.5c4.2,2.5,8.4,4.9,12.7,7l1-5.5l14.2-37.3L248,71.8h-99.7
	l3.8,0.8C176.1,77.6,194.6,86.8,215.6,98.5"/>
<polyline class="st1" points="284.7,154.7 287.5,153.4 289.4,152.4 287.8,151.8 285.1,150.8 284.7,154.7 "/>
<path class="st1" d="M304.3,141.7l7.4-6.6l7.5-5.7l1,0.5c3.9-3.4,11.5-9.3,15.2-13.5l-71.9-26.7L248,83.9l-9,23.8l-12.6,33.2
	l-4.8,6.6l19.8,9.5l26,8.9l6.1-3.7l7.8-5.5l1.2-6.6l-11.1-4.5l4.7-12c6.3,2.2,20.3,7.2,24.2,9l-0.6,3L304.3,141.7"/>
<path class="st1" d="M337.6,104.6l7.9,3.2c6-4.6,10-7.5,16.7-10l10.5-0.4c4.6,1.6,6.8,3.5,8.5,6.1c3,4.7,4.3,10.6,4.3,10.6l2.3,10.2
	l97.3,36.2l1.5,1.6l-23.2,61.3c-1.9,5-2.4,8.9-6.5,13.2l2.1,0.7l3.2,0.9c4.1,1.3,8.3,2.5,11.5,3.5l1.6-4.4l3.6-9.9
	c2.5-5.3,3.8-11.5,9.6-15.1l6.6-4.6l9.5,3.4l30.7,11.3l19.9,8.3l8.6,6.2l0.3,12.5l4.1,5.3l1.7,3.2l0.3,0.5V103
	c0-17.2-14-31.3-31.2-31.3H251.1l34.2,13.1L337.6,104.6"/>
<polyline class="st1" points="205.5,145.7 216.9,147.6 206.9,142.5 205.5,145.7 "/>
<polyline class="st1" points="471.5,247.7 472.7,244.4 460.5,240.7 471.5,247.7 "/>
<path class="st1" d="M455.9,232.8c0-2.5,0.7-4.1,2.4-9.2l19.3-50.9l0.2-1.1l-89.6-34.5c0.8,4.6,3.1,14.6,3.7,19.8l1.3,0.6
	c2.7,10.5,2.1,18.4,3.7,27.2l1.4-3.6c4.7,1.2,19,6.7,22.8,8.6l-3.7,11.6l-10.9-4.1l-7.7,8.2c1.2,4.8,1.7,6.4,3.6,11.1l53.2,19.5
	L455.9,232.8"/>
<path class="st1" d="M403,196.1l-5.7-1.9l0.7,7.4C398,201.7,400.1,200.9,403,196.1"/>
<polyline class="st2" points="171.1,237.6 169.8,239.4 233.4,262.4 234.3,255.9 173.6,232.7 171.1,237.6 "/>
<path class="st2" d="M369.9,314.4l63.1,25.8l1.8-7.9c-9.9-4.3-32.4-12.3-28.1-10.7l-32.3-12.4L369.9,314.4"/>
<path class="st2" d="M74.7,198l-0.1-1.1l12.9-29.4l19.3-45.8l12.1-30l1.7-1.8c3.8-4.2,8.3-9.5,14.7-7.6c3.2-3.7,7.5-7.9,11.8-10.5
	h-45.5c-17.3,0-31.3,14.1-31.3,31.3v106.1L74.7,198"/>
<path class="st0" d="M150.6,535.5l-17.6-1.4c-16.3-1.3-20.2-3.1-20.2-6.8c0-3.8,6.9-6.9,27.6-6.9c22.5,0,28,4.6,28.8,8.5h5.5
	c-0.6-7.3-14.3-10.5-35.8-10.5c-21.2,0-32.4,3.7-32.4,8.9c0,5.2,7.2,7.4,25.9,8.9l15.8,1.4c18,1.5,22.5,3.2,22.5,7.1
	c0,4-7.6,7.5-28.6,7.5c-22.9,0-32.6-3.8-32.8-10.1h-5.5c0,7.3,10.8,12.1,38.8,12.1c26.7,0,34.3-5,34.3-9.7
	C177,539,167.7,536.8,150.6,535.5"/>
<polyline class="st0" points="196,536.6 255.5,536.6 255.5,534.7 196,534.7 196,521.1 258,521.1 258,519.2 190.6,519.2 190.6,553.4 
	258.8,553.4 258.8,551.5 196,551.5 196,536.6 "/>
<path class="st0" d="M326.2,536.8c12.1-1.1,17.4-5,17.4-8.5c0-7.3-12.5-9.1-28.8-9.1h-43.7v34.2h5.6v-15.6h38
	c16.9,0,21.7,1.6,22,7.7c0.3,5.2,0.9,7.3,2.4,7.9h5.4c-1.6-1.2-2.1-3.3-2.3-9.5C342.1,540.3,336.6,537.3,326.2,536.8 M313.8,535.9
	h-37.2v-14.8h38.6c12.1,0,22.9,1.4,22.9,7C338.1,535.9,319.3,535.9,313.8,535.9z"/>
<rect x="358.4" y="519.2" class="st0" width="5.5" height="34.2"/>
<polyline class="st0" points="386.8,536.6 446.3,536.6 446.3,534.7 386.8,534.7 386.8,521.1 448.8,521.1 448.8,519.2 381.2,519.2 
	381.2,553.4 449.5,553.4 449.5,551.5 386.8,551.5 386.8,536.6 "/>
<path class="st0" d="M504.7,535.5l-17.6-1.4c-16.3-1.3-20.2-3.1-20.2-6.8c0-3.8,6.8-6.9,27.6-6.9c22.5,0,28,4.6,28.7,8.5h5.5
	c-0.6-7.3-14.3-10.5-35.8-10.5c-21.2,0-32.2,3.7-32.2,8.9c0,5.2,7.1,7.4,25.8,8.9l15.9,1.4c17.9,1.5,22.5,3.2,22.5,7.1
	c0,4-7.6,7.5-28.5,7.5c-23,0-32.6-3.8-32.9-10.1H458c0,7.3,10.7,12.1,38.8,12.1c26.7,0,34.4-5,34.4-9.7
	C531.1,539,521.7,536.8,504.7,535.5"/>
<rect x="108.2" y="410.5" class="st0" width="28.9" height="90.7"/>
<polyline class="st0" points="206.1,428.5 187.4,428.5 187.4,472.4 187.3,472.4 174.9,428.5 147.2,428.5 147.2,501.2 165.9,501.2 
	165.9,456.9 166.1,456.9 178.4,501.2 206.1,501.2 206.1,428.5 "/>
<polyline class="st0" points="309.8,501.2 309.8,476 329.3,428.5 307.3,428.5 299.3,459 299,459 291,428.5 267.1,428.5 286.8,476 
	286.8,501.2 309.8,501.2 "/>
<path class="st0" d="M399.3,467.7h-26.2c-0.4,9.5-2.8,12.3-6.5,12.3c-7,0-7.6-10.3-7.6-24.1c0-14.6,0.7-24.2,7.9-24.2
	c3.4,0,6.3,2,6.8,12.3h25.6c-0.1-26.7-15.1-36-32.9-36c-23.8,0-36.9,19.1-36.3,47.4c0,28.8,11.5,48.1,36.2,48.1
	C383.8,503.5,399.3,492.6,399.3,467.7"/>
<path class="st0" d="M241.7,428.5h-27.4v72.7H243c17.9,0,29.3-13.7,29.3-35.5C272.3,444.1,265,428.5,241.7,428.5 M246.7,482.3
	l-7.4,4.7H237v-39.6h2.3l7.4,4.7c1.6,3,2,8.2,2,15.2C248.6,474.2,248.2,479.3,246.7,482.3z"/>
<path class="st0" d="M399.9,501.2H422l2.4-12.1h16.7l2.3,12.1h23.8L448.5,426h-30L399.9,501.2 M433,444.8h0.2l4.6,28.4H428
	L433,444.8z"/>
<path class="st0" d="M492.5,474.5h2.7l5.7,5.1c0.8,6.4,1.5,15.9,2.9,21.6h22.6c-2.6-11.4-2.5-22-3.7-28.4c-1.1-5.8-4.3-8.9-9.9-9.6
	V463c8.8-2.7,11.6-9.3,11.6-17.9c0-14.2-7.4-19.1-19.8-19.1h-34.6v75.2h22.6V474.5 M492.7,445.5h2.1c4.5,0,7.5,1.1,7.5,6.6
	c0,5.7-3.3,7.6-7.7,7.6h-1.9V445.5z"/>
<path class="st2" d="M101.5,396.7h406.3l-9.5-3.7l-33.2-12.8l-4.3-3l-2.4-6.8l-19.3-7.4c-3.9-2.2-5.6-5-6.3-9.8
	c-1.2-0.8-14.8-6.1-20.7-8.8l-50.5-21.1c-7.4,5.4-14,4.8-23.8,1.7c-8.2-3-15-5.7-20-7.4l-13.7-5.5l-10.2-3.8l-38.8-14.8l-15.7-6
	c-5.5-3.5-5.5-6.4-5.5-6.4s-1.4-2.5-1.1-7l-50.6-16.7c-6.6-2.5-14.2-5.1-20.7-7.5l-9.7,1c-6.5-2.8-13.3-5.3-19.6-8.3l-7.7,3
	l-20.5-7.9L81.5,229c-6.6-1.6-10-10.2-11.2-16.7v153.2C70.2,382.7,84.2,396.7,101.5,396.7"/>
<path class="st0" d="M534.4,420.6l-6.8,6.5l6.8,6.7l6.7-6.7L534.4,420.6 M534.4,432.7l-5.4-5.6l5.4-5.5l5.3,5.5L534.4,432.7z"/>
<path class="st0" d="M537.5,425.5l-2.8-2.1h-2.9v7.5h1.2v-3.2h1.4l1.9,3.2h1.3l-2.2-3.2L537.5,425.5 M533,426.7v-2.3h1.5l1.7,1.1
	l-1.8,1.2H533z"/>
</svg>
