<svg id="Layer_1" data-name="Layer 1" xmlns="http://www.w3.org/2000/svg" viewBox="0 0 412 263"><defs><style>.cls-1{fill:#33c3d6;}.cls-2{fill:#076a9b;}.cls-3{fill:#878689;}.cls-4{fill:#ea8326;}.cls-5{fill:#f4be1c;}.cls-6{fill:none;}</style></defs><polygon class="cls-1" points="386.38 81.19 386.38 90.19 315.38 90.19 315.38 19.19 324.38 19.19 324.38 81.19 386.38 81.19"/><polygon class="cls-2" points="304.38 38.19 304.38 90.19 251.38 90.19 251.38 81.19 295.38 81.19 295.38 38.19 304.38 38.19"/><path class="cls-3" d="M186.69,373.19l7,7-1.18,1.18,0,0a67.28,67.28,0,0,1-7,7.25,44.51,44.51,0,0,1-8.3,6,40,40,0,0,1-7.75,3.51,43.68,43.68,0,0,1-10.52,2.2c-1.58.11-3.14.27-4.72.28a46.24,46.24,0,0,1-29.32-10.3,49.89,49.89,0,0,1-11.55-13.5,48.91,48.91,0,0,1-5.53-14.55,29.51,29.51,0,0,1-.76-9.45,44.94,44.94,0,0,1,2.79-17.42,47.41,47.41,0,0,1,7-12.79,37.85,37.85,0,0,1,4.33-5.05,47.81,47.81,0,0,1,21.53-12,49.62,49.62,0,0,1,15.14-1.3A44.38,44.38,0,0,1,173,308a49.76,49.76,0,0,1,11.46,7.19c2.79,2.29,5.13,5,7.78,7.45a1.93,1.93,0,0,1,.45.56l1,1-8,6-1.78-2.38c-4.43-4.6-9.32-8.6-15.3-11.14a36.89,36.89,0,0,0-8.82-2.5,39.74,39.74,0,0,0-10.21-.2,34.89,34.89,0,0,0-15.42,5.51,36.69,36.69,0,0,0-6.38,5.13,38,38,0,0,0-9.73,17.08,36.16,36.16,0,0,0-1.17,7.21,34.45,34.45,0,0,0-.25,4.54A45,45,0,0,0,120,368.26a41,41,0,0,0,5.68,9.33,32,32,0,0,0,6.62,6.32,35.32,35.32,0,0,0,21.62,7.25,35.67,35.67,0,0,0,12.66-2.11,35.08,35.08,0,0,0,9.85-5.47,41.57,41.57,0,0,0,6-5.36c.82-1,1.66-1.87,2.52-2.78Z" transform="translate(-81.31 -157)"/><path class="cls-3" d="M255.69,304.19v10l-2.22-.32c-1.33,0-2.66,0-4,0a22.06,22.06,0,0,0-8.58,2,30.66,30.66,0,0,0-11,8.27A40.78,40.78,0,0,0,222.3,337a43.15,43.15,0,0,0-2.59,10.41c0,.07,0,.13,0,.2v51.61h-10v-93h10V321.8a.63.63,0,0,0,.36-.27c.51-.71,1-1.46,1.5-2.13a39.5,39.5,0,0,1,15.71-12.27,37.14,37.14,0,0,1,9.72-2.54c2.29-.3,4.57-.16,6.85-.3a1.67,1.67,0,0,1,.46,0Z" transform="translate(-81.31 -157)"/><path class="cls-3" d="M344.69,306.19l-.43,24.51q0,15,0,30.05a50,50,0,0,1-1.19,9.68,39.91,39.91,0,0,1-4.42,12,41.67,41.67,0,0,1-3.83,5.6,30.75,30.75,0,0,1-5.87,5.47,35,35,0,0,1-7.72,4.32,44.77,44.77,0,0,1-9.37,2.46,43.42,43.42,0,0,1-10.56.34,40.56,40.56,0,0,1-16.21-4.18,33.85,33.85,0,0,1-14.61-14.56,44.76,44.76,0,0,1-4.5-13.09,43.31,43.31,0,0,1-.82-7.82c.06-8.62,0-17.24,0-25.86v-.44l-.5-28.5h10v.57a1,1,0,0,1,.07.48c0,.47,0,.94,0,1.41,0,17.36-.13,34.73.07,52.08a33.52,33.52,0,0,0,6,19.51,25.5,25.5,0,0,0,14.58,9.86,39.08,39.08,0,0,0,13.26.94,27.73,27.73,0,0,0,9.86-2.59,25.13,25.13,0,0,0,8.4-6.11,28.17,28.17,0,0,0,6-11.28,35.66,35.66,0,0,0,1.43-7.67q.27-6.39.34-12.77c.09-7,0-14,0-21V306.19Z" transform="translate(-81.31 -157)"/><polygon class="cls-4" points="368.38 101.19 368.38 110.19 324.38 110.19 324.38 197.19 315.38 197.19 315.38 101.19 368.38 101.19"/><polygon class="cls-5" points="304.38 101.19 304.38 172.19 295.38 172.19 295.38 110.19 233.38 110.19 233.38 101.19 304.38 101.19"/><rect class="cls-6" width="412" height="263"/></svg>